<svg xmlns="http://www.w3.org/2000/svg" width="58.401" height="48.564" viewBox="0 0 58.401 48.564">
  <path id="Devices" d="M516.936,378.3h4.676v-4.918h-7.253V378.3ZM565.6,335.712a6.112,6.112,0,0,0-6.3-5.979H535.258a6.112,6.112,0,0,0-6.3,5.979v36.56a6.112,6.112,0,0,0,6.3,5.979H559.3a6.111,6.111,0,0,0,6.3-5.979Zm-5.153,0v36.56a1.089,1.089,0,0,1-1.145,1.07H535.258a1.09,1.09,0,0,1-1.146-1.07v-36.56a1.09,1.09,0,0,1,1.146-1.07H559.3A1.089,1.089,0,0,1,560.45,335.712Zm-13.169,18.366a7.026,7.026,0,1,1-7.348,7.014A7.158,7.158,0,0,1,547.281,354.078Zm-28.246-24.345H513.5a6.092,6.092,0,0,0-6.3,5.934v22.612a6.093,6.093,0,0,0,6.3,5.935h8.112V359.3H513.5a1.071,1.071,0,0,1-1.145-1.026V335.667a1.071,1.071,0,0,1,1.145-1.025h8.112v-4.909Zm28.246,10.208a3.513,3.513,0,1,1-3.721,3.5A3.652,3.652,0,0,1,547.281,339.941Z" transform="translate(-507.202 -329.733)" fill-rule="evenodd"/>
</svg>
