<svg xmlns="http://www.w3.org/2000/svg" width="167" height="274" viewBox="0 0 167 274">
  <defs>
    <style>
      .cls-1, .cls-3 {
        fill: #707070;
      }

      .cls-1 {
        stroke-linecap: round;
      }

      .cls-2, .cls-3 {
        stroke: none;
      }
    </style>
  </defs>
  <g id="Play" class="cls-1" transform="translate(167) rotate(90)">
    <path class="cls-2" d="M 252.8620300292969 166.4999847412109 L 21.13800048828125 166.4999847412109 C 19.23473358154297 166.4999847412109 17.42073249816895 165.9632568359375 15.89203357696533 164.9478607177734 C 14.45773315429688 163.9951171875 13.30223369598389 162.6516265869141 12.55049991607666 161.0625915527344 C 11.79876708984375 159.4735565185547 11.49289989471436 157.7280883789063 11.66603374481201 156.0149230957031 C 11.8505334854126 154.1890258789063 12.58613300323486 152.4461517333984 13.79326629638672 150.9746856689453 L 129.6552734375 9.741455078125 C 131.4667663574219 7.533255100250244 134.1438293457031 6.266788482666016 137.0000305175781 6.266788482666016 C 139.856201171875 6.266788482666016 142.5332641601563 7.533255100250244 144.3447723388672 9.741455078125 L 260.206787109375 150.9746856689453 C 261.4139404296875 152.4461517333984 262.1495056152344 154.1890563964844 262.3340148925781 156.0149230957031 C 262.5071411132813 157.7281188964844 262.2012634277344 159.4735870361328 261.4495239257813 161.0626220703125 C 260.69775390625 162.6516571044922 259.5422973632813 163.9951477050781 258.1080017089844 164.9478607177734 C 256.5793151855469 165.9632873535156 254.7653045654297 166.4999847412109 252.8620300292969 166.4999847412109 Z"/>
    <path class="cls-3" d="M 137 6.766754150390625 C 134.2941741943359 6.766754150390625 131.7579956054688 7.966552734375 130.0418395996094 10.05851745605469 L 14.1798095703125 151.2917938232422 C 13.03530883789063 152.6869201660156 12.33807373046875 154.3375549316406 12.1634521484375 156.065185546875 C 11.99951171875 157.6878509521484 12.28964233398438 159.3419952392578 13.00247192382813 160.8487548828125 C 13.71530151367188 162.3555603027344 14.8101806640625 163.6289825439453 16.16867065429688 164.5313568115234 C 17.61514282226563 165.4921569824219 19.33346557617188 165.9999847412109 21.13800048828125 165.9999847412109 L 252.8620300292969 165.9999847412109 C 254.6665344238281 165.9999847412109 256.3848876953125 165.4921569824219 257.8313293457031 164.5313568115234 C 259.1898193359375 163.6289825439453 260.2846984863281 162.3555603027344 260.9975280761719 160.8487854003906 C 261.7103576660156 159.3419952392578 262.00048828125 157.6878509521484 261.8365478515625 156.065185546875 C 261.6619262695313 154.3375549316406 260.9646911621094 152.6869201660156 259.8201904296875 151.2917938232422 L 143.9582061767578 10.05851745605469 C 142.2420349121094 7.966552734375 139.7058715820313 6.766754150390625 137 6.766754150390625 M 137.0000152587891 5.766769409179688 C 139.8655090332031 5.766769409179688 142.7310028076172 6.985931396484375 144.7313385009766 9.424285888671875 L 260.5933227539063 150.6575622558594 C 265.9478454589844 157.1845855712891 261.3043823242188 166.9999847412109 252.8620300292969 166.9999847412109 L 21.13800048828125 166.9999847412109 C 12.69564819335938 166.9999847412109 8.052154541015625 157.1845855712891 13.40667724609375 150.6575622558594 L 129.2687072753906 9.424285888671875 C 131.2690277099609 6.985931396484375 134.134521484375 5.766769409179688 137.0000152587891 5.766769409179688 Z"/>
  </g>
</svg>
