<svg xmlns="http://www.w3.org/2000/svg" width="50.175" height="45.978" viewBox="0 0 50.175 45.978">
  <path id="Queue" d="M316.1,700.471a.327.327,0,0,0-.344-.318H270.328a.324.324,0,0,0-.334.318v4.655a.33.33,0,0,0,.334.317h45.423a.333.333,0,0,0,.344-.317Zm0-14.392a.333.333,0,0,0-.344-.317H270.328a.33.33,0,0,0-.334.317v4.655a.33.33,0,0,0,.334.318h45.423a.333.333,0,0,0,.344-.318Zm-48.1-18.3a8.531,8.531,0,0,1,8.732-8.312H309.4a8.32,8.32,0,1,1,0,16.615H276.732A8.529,8.529,0,0,1,268,667.777Zm5.563,0a3.092,3.092,0,0,1,3.169-3.012H309.4a3.016,3.016,0,1,1,0,6.025H276.732A3.1,3.1,0,0,1,273.563,667.777Z" transform="translate(-268 -659.465)" fill-rule="evenodd"/>
</svg>
