<svg xmlns="http://www.w3.org/2000/svg" width="56.206" height="61.881" viewBox="0 0 56.206 61.881">
  <g id="ReplayState2" transform="translate(-325.916 -148)">
    <path id="Replay" d="M58.56,368.515l3.083-2.94a2.549,2.549,0,0,0,0-3.738,2.878,2.878,0,0,0-3.932,0l-9.61,9.137,9.61,9.138a2.9,2.9,0,0,0,3.932,0,2.56,2.56,0,0,0,0-3.748l-3.083-2.931h11.3c7.319,0,13.264-5.662,13.264-12.622V342.346c0-6.96-5.945-12.613-13.264-12.613H40.19c-7.329,0-13.274,5.653-13.274,12.613v18.465c0,6.96,5.945,12.622,13.274,12.622h2.634v-4.918H40.19a7.915,7.915,0,0,1-8.1-7.7V342.346a7.915,7.915,0,0,1,8.1-7.7H69.858a7.921,7.921,0,0,1,8.1,7.7v18.465a7.921,7.921,0,0,1-8.1,7.7Z" transform="translate(299 -171)" fill-rule="evenodd"/>
    <rect id="BackgroundNumber" width="17" height="28" transform="translate(346 148)" fill="#fff"/>
    <text id="Number" transform="translate(350 169)" font-size="28" font-family="AntipastoPro-DemiBold, Antipasto Pro" font-weight="300"><tspan x="0" y="0">1</tspan></text>
  </g>
</svg>
