<svg xmlns="http://www.w3.org/2000/svg" width="58.115" height="48.503" viewBox="0 0 58.115 48.503">
  <path id="Shuffle" d="M554.247,45.083a.247.247,0,0,1,.239.154.228.228,0,0,1-.057.272l-2.376,2.26a2.559,2.559,0,0,0,0,3.747,2.879,2.879,0,0,0,3.932,0s7.223-6.86,9.141-8.693a.613.613,0,0,0,0-.889c-1.918-1.833-9.141-8.693-9.141-8.693a2.879,2.879,0,0,0-3.932,0,2.559,2.559,0,0,0,0,3.748l2.49,2.368a.228.228,0,0,1,.058.272.247.247,0,0,1-.239.154c-1.45,0-4.847-.009-4.847-.009a7.487,7.487,0,0,1-3.9-1.452,31.093,31.093,0,0,1-5.191-4.482s-1.03-1.062-1.565-1.615a.449.449,0,0,0-.334-.145.444.444,0,0,0-.334.118c-.772.681-2.624,2.3-3.4,2.976a.41.41,0,0,0-.153.309.432.432,0,0,0,.125.327c.534.554,1.565,1.615,1.565,1.615,4.475,4.619,9.037,7.64,13.178,7.64C549.505,45.065,552.826,45.074,554.247,45.083Zm.182-34.508a.226.226,0,0,1,.057.272.261.261,0,0,1-.239.154c-1.421,0-4.742.009-4.742.009-2.91,0-6.011,1.407-9.1,3.875-3.884,3.1-7.912,7.94-11.92,12.794-3.759,4.537-7.49,9.1-11.126,12-1.918,1.534-3.722,2.641-5.526,2.641h-4.151a.46.46,0,0,0-.477.444v4.392a.467.467,0,0,0,.134.327.516.516,0,0,0,.343.127h4.151c2.92,0,6.013-1.4,9.105-3.875,3.884-3.1,7.911-7.94,11.928-12.794,3.75-4.537,7.49-9.1,11.126-12.005,1.918-1.533,3.713-2.64,5.516-2.64h.01s3.4-.009,4.847-.009a.261.261,0,0,1,.239.154.228.228,0,0,1-.058.272c-.82.789-2.49,2.377-2.49,2.377a2.549,2.549,0,0,0,0,3.738,2.879,2.879,0,0,0,3.932,0s7.223-6.86,9.141-8.693a.6.6,0,0,0,.191-.444.617.617,0,0,0-.191-.445l-9.141-8.693a2.9,2.9,0,0,0-3.932,0,2.56,2.56,0,0,0,0,3.748S553.637,9.813,554.429,10.575Zm-44.44,3.185h1.841c1.6,0,3.207.889,4.9,2.15a45.745,45.745,0,0,1,6.5,6.27l1.488,1.679a.474.474,0,0,0,.325.154.464.464,0,0,0,.343-.1c.8-.644,2.72-2.187,3.531-2.831a.447.447,0,0,0,.057-.635c-.515-.581-1.5-1.679-1.5-1.679a44.231,44.231,0,0,0-8.846-8.085,12.912,12.912,0,0,0-6.8-2.223H507.2v5.3Z" transform="translate(-507.202 -3.79)" fill-rule="evenodd"/>
</svg>
