<svg xmlns="http://www.w3.org/2000/svg" width="57.725" height="54.171" viewBox="0 0 57.725 54.171">
  <path id="Volume" d="M264.3,24.009a20.654,20.654,0,0,0,.047,6.461,11.034,11.034,0,0,0,5.64,7.849l28,15.5a2.94,2.94,0,0,0,2.8,0,2.624,2.624,0,0,0,1.393-2.287V2.649a2.638,2.638,0,0,0-1.393-2.3,2.916,2.916,0,0,0-2.8.009s-19.686,10.889-28,15.489a11.049,11.049,0,0,0-5.64,7.858ZM306.757,7.4a.287.287,0,0,1,.143-.254.313.313,0,0,1,.3-.036,21.387,21.387,0,0,1,14.6,19.972,21.4,21.4,0,0,1-14.6,19.981.34.34,0,0,1-.3-.036.323.323,0,0,1-.143-.254V41.839a.552.552,0,0,1,.324-.5,15.963,15.963,0,0,0,9.151-14.255,15.95,15.95,0,0,0-9.151-14.246.565.565,0,0,1-.324-.508ZM269.845,24.544v-.018a5.762,5.762,0,0,1,2.94-4.092L296.6,7.249V46.222a.4.4,0,0,1-.21.354.432.432,0,0,1-.42,0c-6.374-3.53-17.472-9.664-23.188-12.831a5.762,5.762,0,0,1-2.94-4.092,15.918,15.918,0,0,1,0-5.127Zm36.912-6.914a.336.336,0,0,1,.19-.3.364.364,0,0,1,.372.036,11.939,11.939,0,0,1,0,19.446.386.386,0,0,1-.372.027.333.333,0,0,1-.19-.29ZM264.3,24l.039-.272c-.01.091-.03.181-.039.272l-.114.7.114-.69Z" transform="translate(-264.07)" fill-rule="evenodd"/>
</svg>
